PathFileType	4	(X/Y/Z)	/home/abdul/Desktop/myosuite/custom_workspace/IK/output/S19_12_1.trc
DataRate	CameraRate	NumFrames	NumMarkers	Units	OrigDataRate	OrigDataStartFrame	OrigNumFrames
200.0	200.0	89	3	mm	200.0	212	1694
Frame#	Time	V_Shoulder			V_Elbow			V_Wrist		
		X1	Y1	Z1	X2	Y2	Z2	X3	Y3	Z3

212	1.055	-92.90484927884886	637.5078197304368	321.1390138283173				-76.99689148518523	207.22352610204348	50.151701240516026
213	1.06	-92.89362176365258	637.2976206014722	321.12148921603165				-77.00482568455054	207.08623749053658	49.98313832281555
214	1.065	-92.88446964579782	637.0900688444813	321.10340302979785				-77.01394963490833	206.9492436302836	49.81947149020081
215	1.07	-92.87737264547553	636.8851260993725	321.084727341396				-77.02400790812152	206.81248260416427	49.66051675983406
216	1.075	-92.87230989006842	636.68275359253	321.06543432667644				-77.03474663387047	206.6758998384505	49.50608991638618
217	1.08	-92.86925992194456	636.482912203163	321.0454963357666				-77.04591395984852	206.53944774105634	49.35600696988621
218	1.085	-92.86820070574066	636.2855625286625	321.02488596307694				-77.05726051375754	206.4030853349351	49.21008459869806
219	1.09	-92.86910963516682	636.0906649488498	321.00357611694				-77.06853986527608	206.2667778883694	49.06814057677994
220	1.095	-92.87196353936645	635.898179688993	320.9815400887165				-77.0795089861788	206.13049654384122	48.929994184422405
221	1.1	-92.87673868886726	635.7080668814838	320.9587516212023				-77.0899287068005	205.99421794710554	48.795466601703176
222	1.105	-92.88341080116224	635.5202866260692	320.93518497617134				-77.09956416706211	205.85792387802042	48.66438128394023
223	1.11	-92.89195504595959	635.3347990485294	320.9108150008918				-77.10818526030883	205.72160088461015	48.536564318469566
224	1.115	-92.90234605014416	635.15156435771	320.88561719345205				-77.11556706825293	205.58523992175668	48.411844762120396
225	1.12	-92.91455790249307	634.9705429008131	320.85956776673817				-77.12149028536349	205.44883599582954	48.29005495880813
226	1.125	-92.92856415818989	634.7916952168615	320.83264371090553				-77.12574163110506	205.31238781647284	48.17103083671459
227	1.13	-92.94433784318312	634.6149820882544	320.8048228541904				-77.12811424849414	205.175897456678	48.05461218457528
228	1.135	-92.96185145843545	634.4403645903417	320.77608392191115				-77.12840808751722	205.0393700221723	47.94064290664533
229	1.14	-92.98107698411076	634.2678041389457	320.74640659351417				-77.12643027203623	204.90281333105793	47.82897125596901
230	1.145	-93.00198588374697	634.0972625357689	320.71577155752084				-77.12199544889658	204.76623760453765	47.71945004563227
231	1.15	-93.0245491084629	633.928702011632	320.68416056424104				-77.1149261180474	204.6296551694636	47.6119368377337
232	1.155	-93.04873710124748	633.7620852674946	320.6515564761202				-77.10505294258465	204.4930801733473	47.5062941098669
233	1.16	-93.07451980137984	633.5973755132131	320.61794331559554				-77.0922150377326	204.3565283123727	47.40238939896594
234	1.165	-93.10186664902862	633.4345365040032	320.58330631034124				-77.07626023788943	204.22001657285747	47.30009542242585
235	1.17	-93.13074659007862	633.2735325745775	320.54763193579043				-77.05704534097437	204.08356298651537	47.19929017647179
236	1.175	-93.1611280812322	633.1143286709379	320.51090795482713				-77.03443632942957	203.94718639978174	47.099857011813235
237	1.18	-93.19297909543256	632.9568903798054	320.47312345455134				-77.00830856734594	203.81090625737983	47.00168468668397
238	1.185	-93.22626712765452	632.8011839556863	320.43426888002494				-76.97854697329983	203.67474240022256	46.90466739743375
239	1.19	-93.26095920110869	632.6471763455698	320.3943360649162				-76.94504616860415	203.5387148776685	46.808704786904215
240	1.195	-93.29702187390227	632.4948352112646	320.35331825896753				-76.90771060079344	203.4028437740784	46.713701930889194
241	1.2	-93.33442124619978	632.344128949393	320.3112101522211				-76.86645464227684	203.26714904955497	46.619569303047534
242	1.205	-93.37312296792483	632.1950267090606	320.26800789594427				-76.82120266420381	203.131650394687	46.526222718706094
243	1.21	-93.41309224704246	632.0474984072295	320.2237091202067				-76.77188908569534	202.99636709906807	46.43358325805988
244	1.215	-93.45429385846012	631.9015147418354	320.1783129480704				-76.71845839869705	202.86131793331225	46.34157716934635
245	1.22	-93.49669215358392	631.7570472026829	320.13182000636107				-76.66086516880893	202.72652104424898	46.25013575264079
246	1.225	-93.5402510705635	631.6140680801759	320.0842324330028				-76.59907401253935	202.5919938629474	46.15919522499
247	1.23	-93.58493414525857	631.4725504719312	320.0355538809031				-76.53305955151879	202.4577530251919	46.06869656767056
248	1.235	-93.63070452295653	631.3324682873414	319.9857895183888				-76.46280634428786	202.32381430401085	45.978585356427004
249	1.24	-93.67752497086882	631.1937962501513	319.93494602619995				-76.38830879634898	202.19019255384558	45.88881157561314
250	1.245	-93.72535789143156	631.0565098991237	319.8830315910608				-76.30957104923675	202.05690166593726	45.79932941722592
251	1.25	-93.77416533643292	630.9205855868703	319.8300558958556				-76.22660684942085	201.92395453450567	45.710097065886245
252	1.255	-93.82390902198723	630.7860004769328	319.7760301064471				-76.13943939790717	201.79136303329386	45.621076470883644
253	1.26	-93.87455034437369	630.6527325392045	319.72096685518403				-76.04810118144673	201.65913800205772	45.53223310646236
254	1.265	-93.9260503967538	630.5207605437803	319.6648802211539				-75.95263378629741	201.52728924258753	45.44353572158332
255	1.27	-93.97836998677997	630.3900640533402	319.60778570724847				-75.8530876955141	201.39582552385826	45.3549560804512
256	1.275	-94.03146965510359	630.2606234141604	319.5497002141146				-75.74952207076345	201.26475459591984	45.266468695146195
257	1.28	-94.08530969478909	630.1324197458615	319.4906420110757				-75.64200451967577	201.13408321215044	45.178050551747
258	1.285	-94.13985017163627	630.005434929998	319.4306307041157				-75.53061084975504	201.00381715951255	45.089680831373755
259	1.29	-94.19505094541144	629.8796515976032	319.3696872010261				-75.41542480987098	200.87396129646396	45.00134062761741
260	1.295	-94.25087169198353	629.7550531157973	319.30783367382463				-75.29653782035474	200.74451959819123	44.91301266185435
261	1.3	-94.30727192635896	629.6316235735775	319.24509351856335				-75.17404869271208	200.61549520884375	44.82468099797272
262	1.305	-94.36421102660559	629.5093477669026	319.1814913126487				-75.04806333995643	200.48689050045752	44.73633075805775
263	1.31	-94.42164825865306	629.3882111831891	319.11705276980393				-74.91869447854766	200.35870713826444	44.64794784059968
264	1.315	-94.4795428019537	629.2681999853371	319.0518046928131				-74.7860613229038	200.23094615208802	44.55951864279632
265	1.32	-94.53785377598426	629.1493009953994	318.9857749241877				-74.65028927343093	200.10360801352613	44.471029788525684
266	1.325	-94.59654026756697	629.0315016780127	318.9189922949068				-74.51150959899208	199.97669271862046	44.38246786356011
267	1.33	-94.65556135898366	628.9147901237046	318.85148657138296				-74.36985911471064	199.85019987570428	44.29381915958266
268	1.335	-94.7148761568548	628.7991550321907	318.78328840081343				-74.22547985597606	199.724128798109	44.20506942854945
269	1.34	-94.77444382175146	628.6845856957717	318.714429255079				-74.07851874949243	199.59847860139678	44.11620364891687
270	1.345	-94.83422359850546	628.5710719829412	318.64494137335583				-73.92912728218148	199.47324830476703	44.02720580522172
271	1.35	-94.89417484717985	628.45860432231	318.5748577036115				-73.77746116872402	199.34843693626308	43.93805868246386
272	1.355	-94.95425707465934	628.3471736869483	318.50421184315337				-73.62368001849465	199.22404364137952	43.84874367669622
273	1.36	-95.01442996681651	628.2367715792462	318.43303797840593				-73.46794700261779	199.10006779464356	43.759240623175074
274	1.365	-95.07465342120823	628.1273900163861	318.36137082408874				-73.31042852184486	198.9765091137134	43.66952764336535
275	1.37	-95.13488758025274	628.0190215165195	318.289245561972				-73.1512938759268	198.85336777550404	43.579581012030964
276	1.375	-95.19509286483606	627.9116590857288	318.2166977793827				-72.99071493512986	198.73064453381951	43.48937504556916
277	1.38	-95.25523000829382	627.805296205859	318.14376340763846				-72.82886581451743	198.60834083793668	43.39888201267099
278	1.385	-95.31526009071196	627.6999268232892	318.0704786605799				-72.66592255159652	198.48645895155408	43.3080720683074
279	1.39	-95.37514457348811	627.5955453387134	317.99687997337475				-72.50206278790348	198.3650020714881	43.21691321195249
280	1.395	-95.4348453340927	627.4921465979927	317.92300394176164				-72.33746545508019	198.2439744454698	43.12537127086174
281	1.4	-95.49432470096781	627.3897258841324	317.8488872619007				-72.17231046596864	198.1233814883721	43.033409909125595
282	1.405	-95.55354548849924	627.2882789104341	317.77456667099415				-72.00677841122862	198.00322989617302	42.94099066311546
283	1.41	-95.61247103199626	627.1878018148623	317.70007888883566				-71.84105026195982	197.8835277569461	42.84807300383272
284	1.415	-95.67106522261194	627.0882911556588	317.6254605604422				-71.6753070787855	197.7642846581561	42.754614426560316
285	1.42	-95.7292925421358	626.9897439082332	317.55074819991927				-71.50972972783028	197.64551178953394	42.66057056810199
286	1.425	-95.78711809758939	626.8921574633449	317.47597813570195				-71.34449860399937	197.52722204080618	42.5658953517767
287	1.43	-95.8445076555548	626.7955296265912	317.4011864573106				-71.17979336193864	197.40943009356272	42.47054116021494
288	1.435	-95.90142767616568	626.6998586192018	317.32640896375216				-71.01579265502772	197.29215250656267	42.374459035880164
289	1.44	-95.95784534668928	626.605143080135	317.2516811136923				-70.85267388272803	197.17540779380357	42.27759890911311
290	1.445	-96.01372861462858	626.511382069466	317.1770379775147				-70.69061294657563	197.05921649471017	42.179909853368706
291	1.45	-96.06904622027344	626.4185750730452	317.10251419137893				-70.52978401507599	196.94360123584158	42.0813403671862
292	1.455	-96.12376772862967	626.3267220083985	317.02814391337716				-70.37035929772189	196.82858678356212	41.98183868230185
293	1.46	-96.17786356065558	626.2358232318363	316.95396078188475				-70.21250882831856	196.7142000871802	41.88135309718197
294	1.465	-96.23130502373652	626.1458795467269	316.8799978761888				-70.05640025776044	196.60047031212275	41.7798323351212
295	1.47	-96.28406434132819	626.056892212884	316.8062876794721				-69.90219865636341	196.48742886278552	41.67722592591815
296	1.475	-96.33611468170135	625.9688629570151	316.73286204421953				-69.7500663258132	196.37510939477733	41.573484610007384
297	1.48	-96.38743018572121	625.8817939841621	316.65975216010565				-69.60016262074615	196.26354781636218	41.46856076379441
298	1.485	-96.43798599359684	625.7956879900702	316.5869885244124				-69.45264377993338	196.1527822789921	41.36240884480847
299	1.49	-96.48775827053714	625.7105481744027	316.51460091501775				-69.30766276699256	196.04285315691976	41.254985855157976
300	1.495	-96.53672423125245	625.626378254725	316.44261836598434				-69.16536912050452	195.93380301597585	41.14625182164464
